<svg xmlns="http://www.w3.org/2000/svg" width="1024pt" height="1024pt" stroke-linecap="round" stroke-linejoin="round" stroke-miterlimit="10" clip-rule="evenodd" viewBox="0 0 1024 1024"><path fill="#1aa5a5" d="M163.086 787.218c-13.183 4.338-10.143-19.983 2.85-25.757m0 0c18.88-8.39 44.185-24.106 57.01-38.56 25.461-28.695 34.409-46.537 30.973-72.052-2.683-19.928-22.658-21.107-36.622-15.475q-10.146 3.72-20.817 2.517-26.146-2.947-39.877-20.165-13.73-17.218-10.663-44.431 2.947-26.147 25.061-42.567c22.114-16.42 31.719-15.338 50.929-13.173q35.216 3.97 59.239 37.748 24.021 33.778 18.309 84.469-6.195 54.96-49.668 97.883-31.944 31.539-86.724 49.563"/><path fill="none" stroke="#1aa5a5" stroke-linecap="butt" stroke-width="12.576" d="M215.189 528.957v-292.69"/><path fill="#1aa5a5" d="M345.031 787.218c-13.182 4.338-10.143-19.983 2.85-25.757m0 0c18.88-8.39 44.185-24.106 57.01-38.56 25.462-28.695 34.409-46.537 30.974-72.052-2.683-19.928-22.659-21.107-36.622-15.475q-10.146 3.72-20.818 2.517-26.147-2.947-39.876-20.165-13.73-17.218-10.663-44.431 2.946-26.147 25.061-42.567c22.115-16.42 31.719-15.338 50.928-13.173q35.217 3.97 59.239 37.748c24.022 33.778 22.118 50.675 18.309 84.469q-6.193 54.96-49.668 97.883-31.942 31.539-86.724 49.563"/><path fill="none" stroke="#1aa5a5" stroke-linecap="butt" stroke-width="12.576" d="M397.134 528.957v-292.69"/><path fill="none" stroke="#1aa5a5" stroke-linecap="butt" stroke-width="13.148" d="M734.316 499.357 594.313 241.363"/><path fill="#6f40cd" d="M811.3 750.459c-9.517 10.1-18.446-12.726-9.78-23.998m0 0c12.592-16.379 27.337-42.262 31.716-61.083 8.692-37.365 8.046-57.314-7.143-78.101-11.863-16.236-29.982-7.744-39.569 3.865q-7.143 8.109-17.097 12.142-24.385 9.88-44.665 1.296c-20.28-8.584-23.709-17.045-30.564-33.966q-9.882-24.385 1.724-49.365 11.604-24.98 38.479-35.869 32.846-13.31 70.07 4.922 37.225 18.231 56.381 65.51 20.77 51.26 3.032 109.721-13.032 42.956-52.584 84.926"/><g fill="none" stroke="#1aa5a5"><path stroke-width="20" d="M145.38 237.66h535.334"/><path stroke-width="12.576" d="M849.128 476.508s104.932 40.971 49.348 205.334"/><path stroke-width="12.71" d="M914.324 485.089s69.455 28.428 30.648 137.314"/></g></svg>